<svg width="1280" height="1948" fill="none" xmlns="http://www.w3.org/2000/svg"><circle cx="115" cy="850" r="107.5" stroke="#212121"/><circle cx="1165" cy="1375" r="107.5" stroke="#212121"/><g filter="url('#filter0_b_13301_2')"><circle cx="115" cy="850" r="68" fill="url('#paint0_linear_13301_2')" fill-opacity=".03"/></g><g filter="url('#filter1_b_13301_2')"><circle cx="1165" cy="1375" r="68" fill="url('#paint1_linear_13301_2')" fill-opacity=".03"/></g><mask id="path-5-inside-1_13301_2" fill="#fff"><path d="M1250 490a333.958 333.958 0 0 0-236.17 97.826A333.977 333.977 0 0 0 916 824h334V490Z"/></mask><path d="M1250 490a333.958 333.958 0 0 0-236.17 97.826A333.977 333.977 0 0 0 916 824h334V490Z" stroke="#212121" stroke-width="2" mask="url('#path-5-inside-1_13301_2')"/><mask id="path-6-inside-2_13301_2" fill="#fff"><path d="M1233 1786c-20.22 0-40.25 3.98-58.93 11.72a153.966 153.966 0 0 0-49.96 33.39 153.966 153.966 0 0 0-33.39 49.96A153.965 153.965 0 0 0 1079 1940h154v-154Z"/></mask><path d="M1233 1786c-20.22 0-40.25 3.98-58.93 11.72a153.966 153.966 0 0 0-49.96 33.39 153.966 153.966 0 0 0-33.39 49.96A153.965 153.965 0 0 0 1079 1940h154v-154Z" stroke="#212121" stroke-width="2" mask="url('#path-6-inside-2_13301_2')"/><mask id="path-7-inside-3_13301_2" fill="#fff"><path d="M364 1588a333.958 333.958 0 0 0-97.826-236.17 334.02 334.02 0 0 0-108.358-72.41A334.087 334.087 0 0 0 30 1254v334h334Z"/></mask><path d="M364 1588a333.958 333.958 0 0 0-97.826-236.17 334.02 334.02 0 0 0-108.358-72.41A334.087 334.087 0 0 0 30 1254v334h334Z" stroke="#212121" stroke-width="2" mask="url('#path-7-inside-3_13301_2')"/><path stroke="#212121" d="M115.5 0v796.963M115.5 1028.96V2436M1165.5 0v1360.85M1165.5 1592.85V2552"/><defs><linearGradient id="paint0_linear_13301_2" x1="55" y1="762" x2="155" y2="947" gradientUnits="userSpaceOnUse"><stop stop-color="#C4C4C4"/><stop offset="1" stop-color="#C4C4C4" stop-opacity="0"/></linearGradient><linearGradient id="paint1_linear_13301_2" x1="1105" y1="1287" x2="1205" y2="1472" gradientUnits="userSpaceOnUse"><stop stop-color="#C4C4C4"/><stop offset="1" stop-color="#C4C4C4" stop-opacity="0"/></linearGradient><filter id="filter0_b_13301_2" x="27" y="762" width="176" height="176" filterUnits="userSpaceOnUse" color-interpolation-filters="sRGB"><feFlood flood-opacity="0" result="BackgroundImageFix"/><feGaussianBlur in="BackgroundImageFix" stdDeviation="10"/><feComposite in2="SourceAlpha" operator="in" result="effect1_backgroundBlur_13301_2"/><feBlend in="SourceGraphic" in2="effect1_backgroundBlur_13301_2" result="shape"/></filter><filter id="filter1_b_13301_2" x="1077" y="1287" width="176" height="176" filterUnits="userSpaceOnUse" color-interpolation-filters="sRGB"><feFlood flood-opacity="0" result="BackgroundImageFix"/><feGaussianBlur in="BackgroundImageFix" stdDeviation="10"/><feComposite in2="SourceAlpha" operator="in" result="effect1_backgroundBlur_13301_2"/><feBlend in="SourceGraphic" in2="effect1_backgroundBlur_13301_2" result="shape"/></filter></defs></svg>