<svg width="100" height="29" fill="none" xmlns="http://www.w3.org/2000/svg"><path d="M31.127 21.928c-.937-1.506-2.864-2.26-5.783-2.26h-.92v9.294h.92c2.256 0 3.92-.514 4.995-1.543.905-.879 1.357-1.997 1.357-3.354-.002-.807-.192-1.519-.57-2.137ZM15.324 22.04c.938 1.507 2.865 2.26 5.781 2.26h.921v-9.294h-.92c-2.256 0-3.92.514-4.995 1.543-.902.878-1.354 1.996-1.354 3.353 0 .806.189 1.519.567 2.138ZM0 .162h12.252v2.462H4.398v1.23h6.525V6.19H4.398v1.245h7.854v2.462H0V.162ZM18.414.15h15.853l-7.926 9.944L18.414.15Zm7.927 8.714L32.89.668H19.816l6.525 8.196ZM40.6.162h12.252v2.461h-7.854v1.231h6.525V6.19h-6.526v1.245h7.855v2.461H40.599V.162ZM60.392 9.882V.15h.942l11.745 6.616V.15h.894v9.735l-13.581-.003ZM86.806 9.896V2.623H80.45V.162h13.582v2.461h-6.356v7.273h-.87ZM7.225 16.945c1.063 0 1.91.094 2.537.28.722.204 1.329.523 1.748.92.42.396.635.853.62 1.318.005.448-.213.887-.628 1.266-.42.388-1.013.704-1.715.916.872.178 1.636.499 2.199.923.584.42.9.944.894 1.483.006.47-.216.933-.64 1.335-.416.4-1.003.73-1.704.958-.372.116-.771.2-1.184.252-.435.056-1.015.084-1.74.084H.168v-9.735h7.057ZM35.56 25.974c-1.264-.639-1.889-1.597-1.873-2.875h3.94c-.017.532.257.938.821 1.217.564.28 1.354.42 2.369.42.837 0 1.498-.08 1.981-.238.484-.158.725-.4.725-.727 0-.27-.245-.466-.737-.588-.47-.117-.96-.204-1.462-.258-.483-.052-.781-.083-.894-.094a31.108 31.108 0 0 1-3.214-.512c-.877-.189-1.658-.502-2.272-.91-.612-.41-.918-.95-.918-1.622 0-.671.306-1.242.918-1.713.612-.471 1.43-.823 2.453-1.056a15.074 15.074 0 0 1 3.347-.35c1.466 0 2.735.159 3.806.476 1.072.317 1.914.797 2.526 1.44.284.272.473.574.556.888.063.276.095.554.096.833H43.79c0-.504-.233-.875-.7-1.112-.468-.238-1.193-.357-2.176-.357-.79 0-1.401.08-1.836.238-.435.158-.653.373-.653.643 0 .299.29.518.87.658.713.162 1.449.289 2.2.377 1.45.168 2.581.329 3.395.483.82.156 1.55.439 2.114.818.596.392.894.942.894 1.65 0 .672-.322 1.25-.966 1.735-.645.485-1.494.855-2.55 1.111a14.46 14.46 0 0 1-3.42.385c-2.335-.001-4.136-.322-5.4-.96ZM57.806 26.68v-7.273H51.45v-2.462h13.582v2.462h-6.356v7.273h-.87ZM69.6 16.945h12.252v2.462h-7.855v1.23h6.525v2.337h-6.525v1.244h7.855v2.462H69.599v-9.735ZM100 26.68H87.07v-9.735h6.55c1.402 0 2.545.145 3.432.434.846.267 1.549.663 2.03 1.147.485.49.735 1.044.725 1.608.011.709-.398 1.397-1.16 1.951-.73.557-1.759.958-2.925 1.14L100 26.68ZM87.965 17.8v5.02h6.21l-6.21-5.02Zm0 8.364h10.343l-3.528-2.84-.75.014h-6.065v2.826Zm.628-8.7 6.574 5.315c1.055-.122 2.004-.454 2.682-.937.698-.476 1.075-1.082 1.063-1.707.01-.492-.216-.976-.652-1.398-.435-.42-1.074-.755-1.837-.965-.709-.205-1.635-.308-2.779-.308h-5.05Z" fill="#fff"/></svg>