<svg width="57" height="26" fill="none" xmlns="http://www.w3.org/2000/svg"><path d="M19.082 19.595c-.558-1.289-1.707-1.933-3.446-1.933h-.55v7.949h.55c1.344 0 2.336-.44 2.977-1.32.539-.752.809-1.707.809-2.868-.002-.69-.115-1.3-.34-1.828ZM9.663 19.69c.56 1.29 1.708 1.934 3.446 1.934h.549v-7.95h-.549c-1.344 0-2.336.44-2.977 1.32-.537.752-.806 1.707-.807 2.868 0 .69.113 1.3.338 1.829ZM.53.98h7.303v2.105H3.15v1.052h3.89v1.998H3.15V7.2h4.682v2.105H.53V.979ZM11.505.969h9.45L16.23 9.474 11.505.969ZM16.23 8.42l3.903-7.01h-7.792l3.889 7.01ZM24.728.979h7.303v2.105h-4.682v1.053h3.89v1.998h-3.89v1.064h4.682v2.106h-7.303V.979ZM36.525 9.293V.969h.562l7 5.658V.969h.533v8.326l-8.095-.002ZM52.269 9.305v-6.22H48.48V.978h8.095v2.105h-3.788v6.22h-.518ZM4.836 15.333c.634 0 1.138.08 1.512.24.43.174.792.447 1.042.786s.379.73.37 1.128a1.76 1.76 0 0 1-.374 1.082 2.539 2.539 0 0 1-1.023.784c.52.152.975.426 1.31.79.35.358.537.806.534 1.267.003.403-.129.799-.382 1.143a2.615 2.615 0 0 1-1.016.819c-.221.099-.46.171-.705.215-.26.048-.605.072-1.037.072H.63v-8.326h4.206ZM21.725 23.055c-.754-.546-1.126-1.366-1.117-2.458h2.348c-.01.454.154.801.49 1.04.336.24.807.36 1.412.36.499 0 .893-.068 1.18-.204.289-.136.433-.343.433-.622 0-.231-.147-.399-.44-.502-.28-.1-.571-.175-.87-.222l-.534-.08a13.45 13.45 0 0 1-1.916-.438 3.423 3.423 0 0 1-1.353-.778c-.365-.35-.548-.813-.548-1.387 0-.574.183-1.063.548-1.466.364-.402.852-.703 1.462-.903a6.389 6.389 0 0 1 1.994-.299c.874 0 1.63.136 2.269.407.639.271 1.14.682 1.505 1.232.17.233.282.49.331.76.038.235.058.473.058.711H26.63c0-.43-.139-.747-.417-.95-.279-.204-.711-.306-1.297-.306-.47 0-.835.068-1.095.204-.259.135-.388.319-.388.55 0 .255.173.442.518.562.425.14.864.248 1.31.323.865.144 1.54.281 2.025.413.489.134.924.376 1.26.7.355.335.533.805.533 1.411 0 .574-.192 1.069-.576 1.483-.384.415-.89.732-1.52.951a6.15 6.15 0 0 1-2.038.33c-1.392-.002-2.465-.276-3.22-.822ZM34.984 23.66v-6.221h-3.789v-2.106h8.095v2.106h-3.788v6.22h-.518Z" fill="#fff"/></svg>