<svg width="137" height="71" fill="none" xmlns="http://www.w3.org/2000/svg"><path d="M42.42 53.048c-1.277-3.655-3.903-5.483-7.88-5.484h-1.255v22.55h1.255c3.073 0 5.342-1.25 6.806-3.746 1.233-2.13 1.85-4.842 1.85-8.135-.003-1.958-.262-3.686-.776-5.184ZM20.884 53.319c1.278 3.655 3.904 5.483 7.879 5.483h1.255V36.253h-1.255c-3.074 0-5.343 1.248-6.807 3.745-1.23 2.13-1.844 4.842-1.845 8.135 0 1.956.258 3.684.773 5.186ZM0 .24h16.698v5.973H5.994v2.986h8.892v5.666H5.994v3.02h10.704v5.972H0V.24ZM25.095.212H46.7L35.897 24.338 25.096.212Zm10.803 21.14 8.925-19.884H27.005l8.893 19.884ZM55.329.24h16.698v5.973H61.323v2.986h8.892v5.666h-8.892v3.02h10.704v5.972H55.329V.24ZM82.302 23.823V.213h1.285l16.006 16.05V.212h1.218v23.616l-18.509-.006ZM118.3 23.857V6.213h-8.662V.24h18.509v5.973h-8.662v17.644H118.3ZM9.846 40.96c1.45 0 2.602.226 3.458.678a5.815 5.815 0 0 1 2.382 2.23 6.06 6.06 0 0 1 .846 3.2 5.8 5.8 0 0 1-.856 3.07 6.156 6.156 0 0 1-2.339 2.223 6.52 6.52 0 0 1 2.997 2.24 5.78 5.78 0 0 1 1.219 3.596 6.261 6.261 0 0 1-.873 3.24 6.444 6.444 0 0 1-2.322 2.325c-.507.28-1.05.487-1.614.61-.592.137-1.383.204-2.37.204H.228V40.96h9.617ZM48.462 62.863c-1.724-1.55-2.574-3.874-2.552-6.973h5.368c-.022 1.29.351 2.273 1.12 2.952.768.679 1.844 1.018 3.227 1.018 1.142 0 2.042-.192 2.7-.577.66-.385.989-.973.989-1.764 0-.657-.335-1.131-1.005-1.426a9.201 9.201 0 0 0-1.992-.627c-.659-.125-1.065-.2-1.219-.227a25.804 25.804 0 0 1-4.38-1.244 7.636 7.636 0 0 1-3.096-2.205c-.834-.996-1.251-2.308-1.251-3.937 0-1.628.417-3.014 1.251-4.156.835-1.143 1.949-1.997 3.343-2.562a12.022 12.022 0 0 1 4.561-.849c1.998 0 3.728.385 5.188 1.154 1.46.77 2.607 1.934 3.441 3.495.388.66.645 1.392.758 2.155.086.67.13 1.344.132 2.019h-5.369c0-1.222-.318-2.12-.955-2.698-.637-.577-1.625-.865-2.964-.865-1.076 0-1.91.192-2.503.577-.593.385-.89.905-.89 1.56 0 .725.396 1.256 1.186 1.596.971.395 1.974.701 2.998.916 1.975.407 3.518.797 4.627 1.17a6.469 6.469 0 0 1 2.882 1.985c.812.95 1.218 2.285 1.218 4.005 0 1.628-.439 3.03-1.317 4.207-.878 1.177-2.037 2.076-3.475 2.698a11.61 11.61 0 0 1-4.66.933c-3.184-.004-5.637-.78-7.361-2.33ZM78.778 64.576V46.932h-8.662v-5.973h18.51v5.973h-8.662v17.644h-1.186ZM94.85 40.96h16.698v5.972h-10.704v2.986h8.893v5.666h-8.893v3.02h10.704v5.972H94.85V40.96ZM136.281 64.576h-17.62V40.96h8.925c1.91 0 3.469.35 4.677 1.051a7.214 7.214 0 0 1 2.766 2.783 7.838 7.838 0 0 1 .988 3.902 7.63 7.63 0 0 1-1.581 4.734 7.435 7.435 0 0 1-3.985 2.765l5.83 8.381ZM119.879 43.03v12.182h8.465l-8.465-12.182Zm0 20.292h14.096l-4.808-6.888-1.021.034h-8.267v6.854Zm.857-21.106 8.958 12.894a6.274 6.274 0 0 0 3.656-2.273 6.416 6.416 0 0 0 1.449-4.14 6.62 6.62 0 0 0-.89-3.393 5.909 5.909 0 0 0-2.503-2.341c-.966-.498-2.228-.747-3.787-.747h-6.883Z" fill="#fff"/></svg>