<svg aria-hidden="true" style="width:0;height:0;position:absolute;overflow:hidden" xmlns="http://www.w3.org/2000/svg"><defs><symbol id="icon-close" viewBox="0 0 32 32"><path d="M1.646 32a1.646 1.646 0 0 1-1.163-2.811L29.19.482a1.646 1.646 0 1 1 2.328 2.329L2.811 31.517A1.65 1.65 0 0 1 1.646 32z"/><path d="M30.355 32a1.63 1.63 0 0 1-1.163-.483L.483 2.811A1.647 1.647 0 0 1 2.812.482l28.707 28.707A1.646 1.646 0 0 1 30.356 32z"/></symbol><symbol id="locationVector" viewBox="0 0 22 32"><path d="M11.2 0C5.024 0 0 4.99 0 11.123 0 18.832 11.211 32 11.211 32S22.4 18.453 22.4 11.123C22.4 4.99 17.376 0 11.2 0zm3.379 14.38c-.932.925-2.155 1.388-3.379 1.388s-2.448-.463-3.379-1.388a4.729 4.729 0 0 1 0-6.712c.902-.896 2.103-1.39 3.379-1.39s2.477.494 3.379 1.39a4.729 4.729 0 0 1 0 6.712z"/></symbol><symbol id="search" viewBox="0 0 12 12"><path d="M1.509 1.509A5.118 5.118 0 0 1 5.152 0c1.376 0 2.67.536 3.643 1.509a5.118 5.118 0 0 1 1.51 3.643 5.114 5.114 0 0 1-1.27 3.386l2.862 2.861a.352.352 0 0 1-.498.498L8.538 9.036a5.114 5.114 0 0 1-3.386 1.268A5.118 5.118 0 0 1 1.51 8.795 5.118 5.118 0 0 1 0 5.152c0-1.376.536-2.67 1.509-3.643Zm.498 6.789a4.453 4.453 0 0 0 6.29 0 4.453 4.453 0 0 0 0-6.291A4.434 4.434 0 0 0 5.152.706a4.435 4.435 0 0 0-3.145 1.3 4.453 4.453 0 0 0 0 6.292Z"/></symbol><symbol id="icon-ticket" viewBox="0 0 35 25"><path d="M3.836.992H0v23.016h3.836V.992zM13.484.992H9.648v23.016h3.836V.992zM19.296.992H15.46v23.016h3.836V.992zM34.524.992h-5.696v23.016h5.696V.992zM7.672.992h-1.86v23.016h1.86V.992zM23.016.992h-1.86v23.016h1.86V.992zM26.852.992h-1.86v23.016h1.86V.992z"/></symbol></defs></svg>