<svg width="229" height="193" viewBox="0 0 229 193" fill="none" xmlns="http://www.w3.org/2000/svg">
<g filter="url(#filter0_b_12708_46)">
<path d="M-1.61381e-06 193C30.0727 193 59.851 188.008 87.6345 178.309C115.418 168.61 140.663 154.393 161.927 136.472C183.192 118.55 200.06 97.2737 211.568 73.8579C223.077 50.4421 229 25.3451 229 -1.52588e-05L6.82249e-06 5.24888e-06L-1.61381e-06 193Z" fill="url(#paint0_linear_12708_46)" fill-opacity="0.03"/>
</g>
<path d="M58.4197 94.0485C57.1433 90.3929 54.5166 88.5647 50.5395 88.5639H49.2847V111.113H50.5395C53.6134 111.113 55.8822 109.865 57.346 107.368C58.5792 105.237 59.1958 102.526 59.1958 99.2334C59.1929 97.2751 58.9342 95.5468 58.4197 94.0485Z" fill="white"/>
<path d="M36.8838 94.3189C38.1616 97.9745 40.788 99.8023 44.7628 99.8023H46.0176V77.2531H44.7628C41.6889 77.2531 39.4201 78.5014 37.9563 80.9981C36.7268 83.1283 36.1116 85.8399 36.1109 89.1328C36.1109 91.0889 36.3685 92.8175 36.8838 94.3189Z" fill="white"/>
<path d="M15.9999 41.2404H32.6977V47.2125H21.994V50.1986H30.8863V55.8653H21.994V58.8853H32.6977V64.8574H15.9999V41.2404Z" fill="white"/>
<path d="M41.095 41.2121H62.7001L51.8975 65.3381L41.095 41.2121ZM51.8975 62.3521L60.8228 42.4676H43.0052L51.8975 62.3521Z" fill="white"/>
<path d="M71.3289 41.2404H88.0267V47.2125H77.323V50.1986H86.2153V55.8653H77.323V58.8853H88.0267V64.8574H71.3289V41.2404Z" fill="white"/>
<path d="M98.3022 64.8235V41.2121H99.5867L115.593 57.2622V41.2121H116.811V64.8291L98.3022 64.8235Z" fill="white"/>
<path d="M134.3 64.8574V47.2125H125.638V41.2404H144.147V47.2125H135.485V64.8574H134.3Z" fill="white"/>
<path d="M25.8462 81.9595C27.2954 81.9595 28.4481 82.1857 29.3044 82.6381C30.2882 83.1326 31.1146 83.9062 31.6863 84.868C32.2581 85.8297 32.5514 86.9397 32.5319 88.0673C32.5379 89.1543 32.2407 90.2202 31.6756 91.1382C31.1014 92.0797 30.2943 92.8468 29.3373 93.3608C30.5257 93.7926 31.5668 94.5706 32.3343 95.6003C33.1309 96.6186 33.5614 97.8893 33.5529 99.1972C33.5613 100.34 33.259 101.463 32.6801 102.438C32.114 103.406 31.3141 104.207 30.3583 104.762C29.8509 105.043 29.3076 105.248 28.7445 105.373C28.1517 105.509 27.3612 105.576 26.3732 105.576H16.2294V81.9595H25.8462Z" fill="white"/>
<path d="M64.462 103.863C62.7385 102.313 61.8877 99.989 61.9096 96.8898H67.2779C67.256 98.1792 67.6292 99.1633 68.3977 99.8419C69.1662 100.521 70.242 100.86 71.6253 100.86C72.767 100.86 73.6672 100.668 74.3259 100.283C74.9846 99.8985 75.314 99.3103 75.314 98.5186C75.314 97.8625 74.9791 97.3875 74.3095 97.0934C73.6699 96.8088 73.0016 96.5982 72.3169 96.4657C71.6582 96.3412 71.252 96.2658 71.0983 96.2394C69.6063 95.9551 68.1408 95.5388 66.7181 94.9952C65.5237 94.5377 64.4594 93.7794 63.6222 92.7896C62.7879 91.7943 62.3707 90.4822 62.3707 88.8534C62.3707 87.2247 62.7879 85.8391 63.6222 84.6967C64.4566 83.5543 65.5708 82.7004 66.9651 82.1348C68.4199 81.5578 69.9677 81.27 71.5265 81.2865C73.5245 81.2865 75.2536 81.6711 76.7137 82.4402C78.1738 83.2093 79.321 84.3744 80.1553 85.9353C80.5425 86.5954 80.7999 87.3275 80.9128 88.09C80.9993 88.7593 81.0433 89.4337 81.0446 90.109H75.6762C75.6762 88.8874 75.3579 87.9882 74.7211 87.4113C74.0844 86.8345 73.0964 86.546 71.757 86.546C70.6812 86.546 69.8468 86.7383 69.254 87.1229C68.6612 87.5075 68.3648 88.0278 68.3648 88.6838C68.3648 89.4077 68.76 89.9393 69.5504 90.2786C70.5214 90.674 71.5243 90.9805 72.5475 91.1948C74.5235 91.602 76.066 91.9922 77.1748 92.3655C78.2926 92.7451 79.2888 93.4314 80.0565 94.3505C80.8689 95.3006 81.2751 96.6353 81.2751 98.3546C81.2751 99.9833 80.836 101.386 79.9577 102.562C79.0795 103.739 77.9213 104.638 76.4831 105.26C75.0062 105.89 73.4213 106.207 71.8229 106.193C68.6392 106.189 66.1856 105.413 64.462 103.863Z" fill="white"/>
<path d="M94.7783 105.576V87.9316H86.1165V81.9595H104.626V87.9316H95.9639V105.576H94.7783Z" fill="white"/>
<path d="M110.85 81.9595H127.548V87.9316H116.844V90.9176H125.737V96.5844H116.844V99.6044H127.548V105.576H110.85V81.9595Z" fill="white"/>
<path d="M152.281 105.576H134.661V81.9595H143.586C145.496 81.9595 147.055 82.3101 148.263 83.0114C149.417 83.658 150.374 84.621 151.029 85.7938C151.691 86.9805 152.032 88.3278 152.017 89.6961C152.033 91.414 151.475 93.0853 150.436 94.4297C149.441 95.7801 148.04 96.7526 146.451 97.1952L152.281 105.576ZM135.879 84.0294V96.2111H144.344L135.879 84.0294ZM135.879 104.321H149.975L145.167 97.4327L144.146 97.4666H135.879V104.321ZM136.736 83.215L145.694 96.1093C147.132 95.813 148.425 95.009 149.35 93.8358C150.3 92.6806 150.815 91.2107 150.799 89.6961C150.812 88.5021 150.504 87.3277 149.909 86.3028C149.317 85.2853 148.446 84.4708 147.406 83.9615C146.44 83.4638 145.178 83.215 143.619 83.215H136.736Z" fill="white"/>
<defs>
<filter id="filter0_b_12708_46" x="-30" y="-30" width="289" height="253" filterUnits="userSpaceOnUse" color-interpolation-filters="sRGB">
<feFlood flood-opacity="0" result="BackgroundImageFix"/>
<feGaussianBlur in="BackgroundImageFix" stdDeviation="15"/>
<feComposite in2="SourceAlpha" operator="in" result="effect1_backgroundBlur_12708_46"/>
<feBlend mode="normal" in="SourceGraphic" in2="effect1_backgroundBlur_12708_46" result="shape"/>
</filter>
<linearGradient id="paint0_linear_12708_46" x1="269.924" y1="-72.6502" x2="-48.1391" y2="290.923" gradientUnits="userSpaceOnUse">
<stop stop-color="#C4C4C4"/>
<stop offset="1" stop-color="#C4C4C4" stop-opacity="0"/>
</linearGradient>
</defs>
</svg>
