<svg width="100" height="29" viewBox="0 0 100 29" fill="none" xmlns="http://www.w3.org/2000/svg">
<path d="M31.1266 21.9284C30.19 20.4216 28.2626 19.668 25.3443 19.6677H24.4236V28.9622H25.3443C27.5999 28.9622 29.2647 28.4476 30.3388 27.4186C31.2437 26.5402 31.6961 25.4225 31.6961 24.0655C31.694 23.2584 31.5041 22.546 31.1266 21.9284Z" fill="white"/>
<path d="M15.3241 22.0398C16.2617 23.5466 18.1889 24.3 21.1055 24.3H22.0263V15.0056H21.1055C18.85 15.0056 17.1852 15.5201 16.1111 16.5492C15.2089 17.4272 14.7575 18.5449 14.757 19.9022C14.757 20.7085 14.946 21.421 15.3241 22.0398Z" fill="white"/>
<path d="M0 0.16217H12.2525V2.62379H4.39833V3.8546H10.9233V6.19034H4.39833V7.43513H12.2525V9.89675H0V0.16217Z" fill="white"/>
<path d="M18.4142 0.150024H34.2675L26.3408 10.0944L18.4142 0.150024ZM26.3408 8.8636L32.89 0.667523H19.8158L26.3408 8.8636Z" fill="white"/>
<path d="M40.5991 0.161682H52.8516V2.6233H44.9975V3.85411H51.5225V6.18985H44.9975V7.43465H52.8516V9.89627H40.5991V0.161682Z" fill="white"/>
<path d="M60.3915 9.88228V0.150024H61.334L73.079 6.76563V0.150024H73.9731V9.88461L60.3915 9.88228Z" fill="white"/>
<path d="M86.8058 9.89627V2.6233H80.45V0.161682H94.0316V2.6233H87.6758V9.89627H86.8058Z" fill="white"/>
<path d="M7.225 16.9455C8.28833 16.9455 9.13416 17.0387 9.7625 17.2252C10.4844 17.429 11.0908 17.7479 11.5103 18.1443C11.9299 18.5408 12.1451 18.9983 12.1308 19.4631C12.1352 19.9111 11.9171 20.3505 11.5025 20.7288C11.0811 21.1169 10.4889 21.4331 9.78666 21.645C10.6587 21.8229 11.4227 22.1436 11.9858 22.5681C12.5703 22.9878 12.8862 23.5115 12.88 24.0506C12.8862 24.5217 12.6643 24.9844 12.2396 25.3863C11.8241 25.7855 11.2372 26.1156 10.5358 26.3444C10.1635 26.4601 9.76487 26.5449 9.35166 26.5962C8.91666 26.6521 8.33666 26.6801 7.61166 26.6801H0.168335V16.9455H7.225Z" fill="white"/>
<path d="M35.5604 25.9737C34.2956 25.335 33.6713 24.3769 33.6874 23.0995H37.6266C37.6105 23.631 37.8844 24.0366 38.4483 24.3163C39.0122 24.5961 39.8016 24.7359 40.8166 24.7359C41.6544 24.7359 42.3149 24.6567 42.7983 24.4982C43.2816 24.3396 43.5233 24.0972 43.5233 23.7709C43.5233 23.5005 43.2776 23.3046 42.7862 23.1834C42.3169 23.0661 41.8265 22.9793 41.3241 22.9247C40.8408 22.8734 40.5427 22.8423 40.4299 22.8314C39.3351 22.7142 38.2597 22.5427 37.2158 22.3186C36.3393 22.13 35.5584 21.8175 34.9441 21.4095C34.3319 20.9992 34.0258 20.4584 34.0258 19.787C34.0258 19.1157 34.3319 18.5446 34.9441 18.0737C35.5563 17.6028 36.374 17.2508 37.397 17.0177C38.4646 16.7799 39.6003 16.6613 40.7441 16.6681C42.2102 16.6681 43.479 16.8266 44.5503 17.1436C45.6217 17.4606 46.4635 17.9408 47.0758 18.5842C47.3599 18.8563 47.5487 19.1581 47.6316 19.4724C47.6951 19.7482 47.7273 20.0262 47.7283 20.3046H43.7891C43.7891 19.801 43.5555 19.4304 43.0883 19.1926C42.621 18.9549 41.896 18.836 40.9133 18.836C40.1238 18.836 39.5116 18.9152 39.0766 19.0737C38.6416 19.2323 38.4241 19.4467 38.4241 19.7171C38.4241 20.0155 38.7141 20.2346 39.2941 20.3745C40.0066 20.5374 40.7425 20.6638 41.4933 20.7521C42.9433 20.92 44.0751 21.0808 44.8887 21.2346C45.7089 21.3911 46.4399 21.674 47.0033 22.0529C47.5994 22.4445 47.8974 22.9946 47.8974 23.7033C47.8974 24.3746 47.5752 24.9527 46.9308 25.4376C46.2863 25.9225 45.4365 26.2931 44.3812 26.5495C43.2974 26.8092 42.1345 26.94 40.9616 26.9341C38.6255 26.9326 36.8251 26.6125 35.5604 25.9737Z" fill="white"/>
<path d="M57.8058 26.6801V19.4071H51.45V16.9455H65.0316V19.4071H58.6758V26.6801H57.8058Z" fill="white"/>
<path d="M69.5991 16.9455H81.8516V19.4071H73.9975V20.6379H80.5224V22.9737H73.9975V24.2185H81.8516V26.6801H69.5991V16.9455Z" fill="white"/>
<path d="M100 26.6801H87.0708V16.9455H93.62C95.0216 16.9455 96.1655 17.09 97.0516 17.3791C97.8983 17.6456 98.6009 18.0425 99.0816 18.526C99.5669 19.0151 99.8173 19.5704 99.8066 20.1344C99.8181 20.8425 99.4085 21.5314 98.6466 22.0855C97.9165 22.6421 96.8881 23.043 95.7225 23.2254L100 26.6801ZM87.965 17.7987V22.8198H94.1758L87.965 17.7987ZM87.965 26.1626H98.3083L94.78 23.3233L94.0308 23.3373H87.965V26.1626ZM88.5933 17.463L95.1666 22.7779C96.222 22.6557 97.1707 22.3243 97.8491 21.8408C98.5468 21.3646 98.9244 20.7587 98.9125 20.1344C98.9222 19.6423 98.6963 19.1582 98.26 18.7358C97.8254 18.3164 97.1865 17.9806 96.4233 17.7707C95.7144 17.5656 94.788 17.463 93.6441 17.463H88.5933Z" fill="white"/>
</svg>
