<svg width="57" height="26" viewBox="0 0 57 26" fill="none" xmlns="http://www.w3.org/2000/svg">
<path d="M19.0821 19.5952C18.5239 18.3064 17.3751 17.6619 15.6357 17.6617H15.0869V25.6109H15.6357C16.9801 25.6109 17.9723 25.1709 18.6125 24.2907C19.1519 23.5395 19.4215 22.5836 19.4215 21.423C19.4203 20.7326 19.3071 20.1234 19.0821 19.5952Z" fill="white"/>
<path d="M9.66333 19.6905C10.2222 20.9793 11.3708 21.6236 13.1092 21.6236H13.658V13.6744H13.1092C11.7649 13.6744 10.7726 14.1145 10.1324 14.9946C9.59467 15.7456 9.32564 16.7015 9.32532 17.8623C9.32532 18.5519 9.43799 19.1613 9.66333 19.6905Z" fill="white"/>
<path d="M0.529785 0.979279H7.83259V3.08462H3.15131V4.13729H7.04038V6.13496H3.15131V7.19959H7.83259V9.30493H0.529785V0.979279Z" fill="white"/>
<path d="M11.5051 0.968903H20.9541L16.2296 9.47399L11.5051 0.968903ZM16.2296 8.42132L20.1331 1.4115H12.3406L16.2296 8.42132Z" fill="white"/>
<path d="M24.7279 0.978851H32.0307V3.08419H27.3494V4.13686H31.2385V6.13454H27.3494V7.19917H32.0307V9.3045H24.7279V0.978851Z" fill="white"/>
<path d="M36.5249 9.29257V0.968903H37.0867L44.087 6.627V0.968903H44.6199V9.29456L36.5249 9.29257Z" fill="white"/>
<path d="M52.2685 9.3045V3.08419H48.4802V0.978851H56.5752V3.08419H52.787V9.3045H52.2685Z" fill="white"/>
<path d="M4.83608 15.3334C5.46986 15.3334 5.974 15.4132 6.3485 15.5727C6.77878 15.747 7.14019 16.0197 7.39024 16.3588C7.6403 16.6978 7.76861 17.0891 7.76009 17.4866C7.76271 17.8698 7.63272 18.2456 7.38559 18.5692C7.13444 18.9011 6.78147 19.1715 6.3629 19.3527C6.88265 19.5049 7.338 19.7792 7.67366 20.1422C8.02205 20.5012 8.21033 20.9492 8.20661 21.4102C8.21029 21.8131 8.07807 22.2089 7.82491 22.5526C7.5773 22.894 7.22744 23.1763 6.80943 23.372C6.58752 23.471 6.34991 23.5434 6.10363 23.5873C5.84436 23.6352 5.49867 23.6591 5.06655 23.6591H0.630127V15.3334H4.83608Z" fill="white"/>
<path d="M21.7248 23.055C20.971 22.5087 20.5989 21.6893 20.6085 20.5968H22.9563C22.9467 21.0513 23.1099 21.3982 23.446 21.6375C23.7821 21.8767 24.2527 21.9963 24.8576 21.9963C25.357 21.9963 25.7507 21.9286 26.0387 21.793C26.3268 21.6574 26.4709 21.4501 26.4709 21.171C26.4709 20.9397 26.3244 20.7722 26.0315 20.6686C25.7518 20.5682 25.4596 20.494 25.1601 20.4473C24.872 20.4034 24.6944 20.3768 24.6272 20.3675C23.9746 20.2673 23.3337 20.1205 22.7114 19.9289C22.1891 19.7676 21.7236 19.5003 21.3575 19.1514C20.9926 18.8005 20.8101 18.3379 20.8101 17.7637C20.8101 17.1896 20.9926 16.7011 21.3575 16.2984C21.7224 15.8957 22.2097 15.5946 22.8195 15.3952C23.4557 15.1918 24.1327 15.0904 24.8144 15.0962C25.6883 15.0962 26.4445 15.2318 27.083 15.5029C27.7216 15.774 28.2234 16.1847 28.5883 16.735C28.7576 16.9677 28.8702 17.2258 28.9195 17.4946C28.9574 17.7305 28.9766 17.9683 28.9772 18.2063H26.6293C26.6293 17.7757 26.4901 17.4587 26.2116 17.2554C25.9331 17.052 25.501 16.9503 24.9152 16.9503C24.4447 16.9503 24.0798 17.0181 23.8205 17.1537C23.5613 17.2892 23.4316 17.4727 23.4316 17.7039C23.4316 17.9591 23.6045 18.1465 23.9502 18.2662C24.3748 18.4055 24.8135 18.5136 25.2609 18.5891C26.1252 18.7327 26.7998 18.8702 27.2847 19.0018C27.7736 19.1357 28.2093 19.3776 28.545 19.7016C28.9003 20.0366 29.078 20.5071 29.078 21.1131C29.078 21.6873 28.8859 22.1818 28.5018 22.5965C28.1177 23.0111 27.6112 23.3281 26.9822 23.5474C26.3363 23.7695 25.6431 23.8814 24.944 23.8764C23.5517 23.8751 22.4786 23.6013 21.7248 23.055Z" fill="white"/>
<path d="M34.9836 23.6591V17.4388H31.1953V15.3334H39.2903V17.4388H35.5021V23.6591H34.9836Z" fill="white"/>
</svg>
