<svg aria-hidden="true" style="position:absolute;width:0;height:0;overflow:hidden" xmlns="http://www.w3.org/2000/svg">
	<defs>
<symbol id="icon-close" viewBox="0 0 25 25">
<path d="M1.28557 25C0.95625 25 0.626931 24.8747 0.376724 24.6227C-0.125574 24.1204 -0.125574 23.306 0.376724 22.8038L22.8043 0.376714C23.3066 -0.125571 24.121 -0.125571 24.6233 0.376714C25.1256 0.878999 25.1256 1.69333 24.6233 2.19593L2.19598 24.6227C1.94389 24.8732 1.61457 25 1.28557 25Z" fill="#4C00FE"/>
<path d="M23.7147 25C23.3854 25 23.0564 24.8747 22.8059 24.6227L0.376724 2.19593C-0.125574 1.69333 -0.125574 0.878999 0.376724 0.376714C0.879022 -0.125571 1.69337 -0.125571 2.19598 0.376714L24.6233 22.8038C25.1256 23.306 25.1256 24.1204 24.6233 24.6227C24.3712 24.8732 24.0422 25 23.7147 25Z" fill="#4C00FE"/>
</symbol>
		<symbol id="locationVector" viewBox="0 0 22 32">
			<path
				d="M11.2 0c-6.176 0-11.2 4.99-11.2 11.123 0 7.709 11.211 20.877 11.211 20.877s11.189-13.547 11.189-20.877c0-6.133-5.024-11.123-11.2-11.123zM14.579 14.38c-0.932 0.925-2.155 1.388-3.379 1.388s-2.448-0.463-3.379-1.388c-1.863-1.85-1.863-4.861 0-6.712 0.902-0.896 2.103-1.39 3.379-1.39s2.477 0.494 3.379 1.39c1.863 1.851 1.863 4.862 0 6.712z">
			</path>
		</symbol>
	</defs>
</svg>