<svg aria-hidden="true" style="position:absolute;width:0;height:0;overflow:hidden" xmlns="http://www.w3.org/2000/svg">
	<defs>
		<symbol id="icon-close" viewBox="0 0 32 32">
			<path
				d="M1.646 32c-0.422 0-0.843-0.16-1.163-0.483-0.643-0.643-0.643-1.685 0-2.328l28.707-28.707c0.643-0.643 1.685-0.643 2.328 0s0.643 1.685 0 2.329l-28.707 28.706c-0.323 0.321-0.744 0.483-1.165 0.483z">
			</path>
			<path
				d="M30.355 32c-0.422 0-0.843-0.16-1.163-0.483l-28.709-28.706c-0.643-0.643-0.643-1.686 0-2.329s1.685-0.643 2.329 0l28.707 28.707c0.643 0.643 0.643 1.685 0 2.328-0.323 0.321-0.744 0.483-1.163 0.483z">
			</path>
		</symbol>
		<symbol id="locationVector" viewBox="0 0 22 32">
			<path
				d="M11.2 0c-6.176 0-11.2 4.99-11.2 11.123 0 7.709 11.211 20.877 11.211 20.877s11.189-13.547 11.189-20.877c0-6.133-5.024-11.123-11.2-11.123zM14.579 14.38c-0.932 0.925-2.155 1.388-3.379 1.388s-2.448-0.463-3.379-1.388c-1.863-1.85-1.863-4.861 0-6.712 0.902-0.896 2.103-1.39 3.379-1.39s2.477 0.494 3.379 1.39c1.863 1.851 1.863 4.862 0 6.712z">
			</path>
		</symbol>
	</defs>
</svg>