<svg aria-hidden="true" style="position:absolute;width:0;height:0;overflow:hidden" xmlns="http://www.w3.org/2000/svg">
  <defs>
    <symbol id="icon-close" viewBox="0 0 25 25">
      <path
        d="M1.286 25c-0.329 0-0.659-0.125-0.909-0.377-0.502-0.502-0.502-1.317 0-1.819l22.428-22.427c0.502-0.502 1.317-0.502 1.819 0s0.502 1.317 0 1.819l-22.427 22.427c-0.252 0.25-0.581 0.377-0.91 0.377z"></path>
      <path
        d="M23.715 25c-0.329 0-0.658-0.125-0.909-0.377l-22.429-22.427c-0.502-0.503-0.502-1.317 0-1.819s1.317-0.502 1.819 0l22.427 22.427c0.502 0.502 0.502 1.317 0 1.819-0.252 0.25-0.581 0.377-0.909 0.377z"></path>
    </symbol>
    <symbol id="locationVector" viewBox="0 0 22 32">
      <path
        d="M11.2 0c-6.176 0-11.2 4.99-11.2 11.123 0 7.709 11.211 20.877 11.211 20.877s11.189-13.547 11.189-20.877c0-6.133-5.024-11.123-11.2-11.123zM14.579 14.38c-0.932 0.925-2.155 1.388-3.379 1.388s-2.448-0.463-3.379-1.388c-1.863-1.85-1.863-4.861 0-6.712 0.902-0.896 2.103-1.39 3.379-1.39s2.477 0.494 3.379 1.39c1.863 1.851 1.863 4.862 0 6.712z">
      </path>
    </symbol>
  </defs>
</svg>