<svg width="1280" height="1948" viewBox="0 0 1280 1948" fill="none" xmlns="http://www.w3.org/2000/svg">
<circle cx="115" cy="850" r="107.5" stroke="#212121"/>
<circle cx="1165" cy="1375" r="107.5" stroke="#212121"/>
<g filter="url(#filter0_b_13301_2)">
<circle cx="115" cy="850" r="68" fill="url(#paint0_linear_13301_2)" fill-opacity="0.03"/>
</g>
<g filter="url(#filter1_b_13301_2)">
<circle cx="1165" cy="1375" r="68" fill="url(#paint1_linear_13301_2)" fill-opacity="0.03"/>
</g>
<mask id="path-5-inside-1_13301_2" fill="white">
<path d="M1250 490C1206.14 490 1162.71 498.639 1122.18 515.424C1081.66 532.209 1044.84 556.812 1013.83 587.826C982.812 618.841 958.21 655.661 941.424 696.184C924.639 736.706 916 780.139 916 824L1250 824L1250 490Z"/>
</mask>
<path d="M1250 490C1206.14 490 1162.71 498.639 1122.18 515.424C1081.66 532.209 1044.84 556.812 1013.83 587.826C982.812 618.841 958.21 655.661 941.424 696.184C924.639 736.706 916 780.139 916 824L1250 824L1250 490Z" stroke="#212121" stroke-width="2" mask="url(#path-5-inside-1_13301_2)"/>
<mask id="path-6-inside-2_13301_2" fill="white">
<path d="M1233 1786C1212.78 1786 1192.75 1789.98 1174.07 1797.72C1155.38 1805.46 1138.41 1816.81 1124.11 1831.11C1109.81 1845.41 1098.46 1862.38 1090.72 1881.07C1082.98 1899.75 1079 1919.78 1079 1940L1233 1940L1233 1786Z"/>
</mask>
<path d="M1233 1786C1212.78 1786 1192.75 1789.98 1174.07 1797.72C1155.38 1805.46 1138.41 1816.81 1124.11 1831.11C1109.81 1845.41 1098.46 1862.38 1090.72 1881.07C1082.98 1899.75 1079 1919.78 1079 1940L1233 1940L1233 1786Z" stroke="#212121" stroke-width="2" mask="url(#path-6-inside-2_13301_2)"/>
<mask id="path-7-inside-3_13301_2" fill="white">
<path d="M364 1588C364 1544.14 355.361 1500.71 338.576 1460.18C321.791 1419.66 297.188 1382.84 266.174 1351.83C235.159 1320.81 198.339 1296.21 157.816 1279.42C117.294 1262.64 73.8615 1254 30 1254L30 1588H364Z"/>
</mask>
<path d="M364 1588C364 1544.14 355.361 1500.71 338.576 1460.18C321.791 1419.66 297.188 1382.84 266.174 1351.83C235.159 1320.81 198.339 1296.21 157.816 1279.42C117.294 1262.64 73.8615 1254 30 1254L30 1588H364Z" stroke="#212121" stroke-width="2" mask="url(#path-7-inside-3_13301_2)"/>
<line x1="115.5" y1="-2.18557e-08" x2="115.5" y2="796.963" stroke="#212121"/>
<line x1="115.5" y1="1028.96" x2="115.5" y2="2436" stroke="#212121"/>
<line x1="1165.5" y1="-2.18557e-08" x2="1165.5" y2="1360.85" stroke="#212121"/>
<line x1="1165.5" y1="1592.85" x2="1165.5" y2="2552" stroke="#212121"/>
<defs>
<filter id="filter0_b_13301_2" x="27" y="762" width="176" height="176" filterUnits="userSpaceOnUse" color-interpolation-filters="sRGB">
<feFlood flood-opacity="0" result="BackgroundImageFix"/>
<feGaussianBlur in="BackgroundImageFix" stdDeviation="10"/>
<feComposite in2="SourceAlpha" operator="in" result="effect1_backgroundBlur_13301_2"/>
<feBlend mode="normal" in="SourceGraphic" in2="effect1_backgroundBlur_13301_2" result="shape"/>
</filter>
<filter id="filter1_b_13301_2" x="1077" y="1287" width="176" height="176" filterUnits="userSpaceOnUse" color-interpolation-filters="sRGB">
<feFlood flood-opacity="0" result="BackgroundImageFix"/>
<feGaussianBlur in="BackgroundImageFix" stdDeviation="10"/>
<feComposite in2="SourceAlpha" operator="in" result="effect1_backgroundBlur_13301_2"/>
<feBlend mode="normal" in="SourceGraphic" in2="effect1_backgroundBlur_13301_2" result="shape"/>
</filter>
<linearGradient id="paint0_linear_13301_2" x1="55" y1="762" x2="155" y2="947" gradientUnits="userSpaceOnUse">
<stop stop-color="#C4C4C4"/>
<stop offset="1" stop-color="#C4C4C4" stop-opacity="0"/>
</linearGradient>
<linearGradient id="paint1_linear_13301_2" x1="1105" y1="1287" x2="1205" y2="1472" gradientUnits="userSpaceOnUse">
<stop stop-color="#C4C4C4"/>
<stop offset="1" stop-color="#C4C4C4" stop-opacity="0"/>
</linearGradient>
</defs>
</svg>
