<svg width="334" height="334" viewBox="0 0 334 334" fill="none" xmlns="http://www.w3.org/2000/svg">
<mask id="path-1-inside-1_12708_11" fill="white">
<path d="M334 -1.45996e-05C290.139 -1.26824e-05 246.707 8.63915 206.184 25.4242C165.661 42.2093 128.841 66.8116 97.8266 97.8264C66.8118 128.841 42.2095 165.661 25.4245 206.184C8.63939 246.706 0.000225707 290.139 0.000229541 334L334 334L334 -1.45996e-05Z"/>
</mask>
<path d="M334 -1.45996e-05C290.139 -1.26824e-05 246.707 8.63915 206.184 25.4242C165.661 42.2093 128.841 66.8116 97.8266 97.8264C66.8118 128.841 42.2095 165.661 25.4245 206.184C8.63939 246.706 0.000225707 290.139 0.000229541 334L334 334L334 -1.45996e-05Z" stroke="#212121" stroke-width="2" mask="url(#path-1-inside-1_12708_11)"/>
</svg>
