<svg width="334" height="334" viewBox="0 0 334 334" fill="none" xmlns="http://www.w3.org/2000/svg">
<mask id="path-1-inside-1_12708_13" fill="white">
<path d="M334 334C334 290.138 325.361 246.706 308.576 206.184C291.791 165.661 267.188 128.841 236.174 97.8263C205.159 66.8116 168.339 42.2093 127.816 25.4242C87.2935 8.63916 43.8615 -1.91725e-06 -1.45996e-05 0L0 334H334Z"/>
</mask>
<path d="M334 334C334 290.138 325.361 246.706 308.576 206.184C291.791 165.661 267.188 128.841 236.174 97.8263C205.159 66.8116 168.339 42.2093 127.816 25.4242C87.2935 8.63916 43.8615 -1.91725e-06 -1.45996e-05 0L0 334H334Z" stroke="#212121" stroke-width="2" mask="url(#path-1-inside-1_12708_13)"/>
</svg>
